<svg width="24" height="24" viewBox="0 0 24 24" fill="none" xmlns="http://www.w3.org/2000/svg">
<path d="M19.7615 21.87L15.7155 17.8545C15.2027 18.0444 14.6343 18.1995 14.0105 18.32C13.3868 18.4405 12.7167 18.5008 12 18.5008C9.65001 18.5008 7.5366 17.8546 5.65976 16.5623C3.78276 15.27 2.40901 13.5828 1.53851 11.5008C1.90768 10.6175 2.3846 9.79346 2.96926 9.0288C3.55393 8.26396 4.19751 7.6008 4.90001 7.0393L2.13076 4.2393L3.18476 3.18555L20.8153 20.816L19.7615 21.87ZM12 15.5778C12.209 15.5778 12.4231 15.5598 12.6423 15.5238C12.8616 15.488 13.0565 15.4354 13.227 15.366L8.13476 10.2738C8.06543 10.4571 8.01285 10.6568 7.97701 10.8728C7.94101 11.089 7.92301 11.2983 7.92301 11.5008C7.92301 12.6355 8.31885 13.5986 9.11051 14.3903C9.90218 15.182 10.8653 15.5778 12 15.5778ZM18.9538 16.0853L15.8173 12.9738C15.8954 12.761 15.9583 12.5328 16.0058 12.2893C16.0533 12.0456 16.077 11.7828 16.077 11.5008C16.077 10.3661 15.6812 9.40296 14.8895 8.6113C14.0978 7.81963 13.1347 7.4238 12 7.4238C11.718 7.4238 11.4584 7.44913 11.2213 7.4998C10.9841 7.55046 10.7558 7.62646 10.5365 7.7278L8.03476 5.23555C8.66676 4.98421 9.31226 4.79896 9.97126 4.6798C10.6303 4.56046 11.3065 4.5008 12 4.5008C14.3435 4.5008 16.4569 5.14696 18.3403 6.4393C20.2236 7.73163 21.5973 9.4188 22.4615 11.5008C22.091 12.3943 21.6125 13.2283 21.026 14.0028C20.4393 14.7771 19.7486 15.4713 18.9538 16.0853ZM14.6845 11.8508L11.675 8.8508C12.116 8.76746 12.5323 8.80013 12.924 8.9488C13.3157 9.09763 13.6532 9.3188 13.9365 9.6123C14.2263 9.90596 14.4385 10.2502 14.573 10.645C14.7077 11.0399 14.7448 11.4418 14.6845 11.8508Z" fill="black" fill-opacity="0.4"/>
</svg>
