<svg width="54" height="39" viewBox="0 0 54 39" fill="none" xmlns="http://www.w3.org/2000/svg">
<g id="Group">
<path id="Vector" d="M33.1307 5.17496C32.6274 4.09648 32.5316 3.04197 32.9869 2.01143C33.2745 1.34037 33.7538 0.813116 34.4009 0.453623C35.6232 -0.265362 37.2289 -0.121565 38.3074 0.78915C39.5776 1.86763 39.8173 3.2337 39.0504 5.31876C39.4578 5.41462 39.8412 5.48652 40.2487 5.55842C47.0551 7.06829 52.2078 12.3888 53.3821 19.2191C53.9813 22.6703 53.5259 26.0016 52.064 29.1891C51.8723 29.5965 51.6566 29.7882 51.1773 29.7643C49.0443 29.7403 46.9352 29.7403 44.8022 29.7403C44.6345 29.7403 44.4907 29.7403 44.2031 29.7403C46.7195 27.104 47.822 24.0603 47.3427 20.5613C46.9592 17.7812 45.6411 15.5044 43.4601 13.7309C39.2421 10.3037 33.3224 10.5434 29.2482 14.354C25.5814 17.7572 24.2153 24.6595 29.1284 29.7403C28.9366 29.7403 28.7689 29.7643 28.6251 29.7643C20.3328 29.7643 12.0644 29.7643 3.77214 29.7643C2.21434 29.7643 1.01603 28.9734 0.584638 27.6313C-0.0624493 25.6181 1.44742 23.581 3.62834 23.581C8.34968 23.581 13.0471 23.581 17.7684 23.581C18.08 23.581 18.4155 23.581 18.7031 23.4851C19.3981 23.2934 19.8535 22.5744 19.7576 21.8794C19.6617 21.1604 19.0865 20.6092 18.3436 20.5613C18.0081 20.5373 17.6725 20.5613 17.337 20.5613C12.7595 20.5613 8.18192 20.5613 3.60438 20.5613C1.87881 20.5613 0.512739 19.339 0.440841 17.7093C0.344976 15.9597 1.51932 14.6176 3.26885 14.4259C3.58041 14.4019 3.89197 14.378 4.20353 14.378C9.66782 14.378 15.1321 14.378 20.5724 14.378C21.7468 14.378 22.4897 13.3954 22.1063 12.3408C21.8666 11.7177 21.3154 11.3343 20.5485 11.3343C19.0146 11.3343 17.4568 11.3343 15.923 11.3343C14.2933 11.3343 12.9752 10.2318 12.7834 8.72196C12.5917 7.04432 13.5743 5.65428 15.228 5.27083C15.4916 5.19893 15.7792 5.19893 16.0668 5.19893C21.5071 5.19893 26.9474 5.19893 32.3878 5.19893C32.6274 5.17496 32.8192 5.17496 33.1307 5.17496Z" fill="#FF5634"/>
<path id="Vector_2" d="M49.7387 32.8091C49.3313 33.2645 49.0197 33.624 48.6842 33.9595C45.305 37.2908 41.2307 38.9684 36.4615 38.9684C29.679 38.9684 22.8966 38.9684 16.0902 38.9684C14.3646 38.9684 13.2143 38.1296 12.8308 36.6197C12.3515 34.7504 13.7175 32.905 15.6348 32.8091C15.8505 32.8091 16.0662 32.7852 16.2819 32.7852C27.1865 32.7852 38.0912 32.7852 48.9958 32.7852C49.2115 32.8091 49.4032 32.8091 49.7387 32.8091Z" fill="#FF5634"/>
</g>
</svg>
