<svg width="55" height="40" viewBox="0 0 55 40" fill="none" xmlns="http://www.w3.org/2000/svg">
<path d="M33.6315 5.92594C33.1282 4.84746 33.0324 3.79295 33.4877 2.7624C33.7753 2.09135 34.2546 1.56409 34.9017 1.2046C36.124 0.485615 37.7297 0.629412 38.8082 1.54013C40.0784 2.6186 40.3181 3.98468 39.5512 6.06974C39.9586 6.1656 40.342 6.2375 40.7495 6.3094C47.5559 7.81927 52.7086 13.1398 53.8829 19.9701C54.4821 23.4212 54.0267 26.7526 52.5648 29.9401C52.3731 30.3475 52.1574 30.5392 51.678 30.5152C49.5451 30.4913 47.436 30.4913 45.303 30.4913C45.1353 30.4913 44.9915 30.4913 44.7039 30.4913C47.2203 27.855 48.3228 24.8113 47.8435 21.3122C47.46 18.5321 46.1419 16.2554 43.9609 14.4819C39.7429 11.0547 33.8232 11.2944 29.749 15.105C26.0822 18.5082 24.7161 25.4104 29.6292 30.4913C29.4374 30.4913 29.2697 30.5152 29.1259 30.5152C20.8336 30.5152 12.5652 30.5152 4.27293 30.5152C2.71513 30.5152 1.51682 29.7244 1.08543 28.3823C0.438344 26.3691 1.94821 24.332 4.12914 24.332C8.85048 24.332 13.5478 24.332 18.2692 24.332C18.5807 24.332 18.9163 24.332 19.2039 24.2361C19.8989 24.0444 20.3542 23.3254 20.2584 22.6304C20.1625 21.9114 19.5873 21.3602 18.8444 21.3122C18.5088 21.2883 18.1733 21.3122 17.8378 21.3122C13.2603 21.3122 8.68271 21.3122 4.10517 21.3122C2.37961 21.3122 1.01353 20.09 0.941634 18.4603C0.845769 16.7107 2.02011 15.3686 3.76964 15.1769C4.0812 15.1529 4.39276 15.129 4.70433 15.129C10.1686 15.129 15.6329 15.129 21.0732 15.129C22.2476 15.129 22.9905 14.1463 22.6071 13.0918C22.3674 12.4687 21.8162 12.0852 21.0493 12.0852C19.5154 12.0852 17.9576 12.0852 16.4238 12.0852C14.7941 12.0852 13.4759 10.9828 13.2842 9.47293C13.0925 7.7953 14.0751 6.40526 15.7288 6.0218C15.9924 5.9499 16.28 5.9499 16.5676 5.9499C22.0079 5.9499 27.4482 5.9499 32.8886 5.9499C33.1282 5.92594 33.3199 5.92594 33.6315 5.92594Z" fill="white"/>
<path d="M50.2401 33.5591C49.8326 34.0145 49.5211 34.374 49.1856 34.7095C45.8063 38.0408 41.7321 39.7184 36.9628 39.7184C30.1804 39.7184 23.3979 39.7184 16.5915 39.7184C14.866 39.7184 13.7156 38.8796 13.3321 37.3697C12.8528 35.5004 14.2189 33.655 16.1362 33.5591C16.3519 33.5591 16.5676 33.5352 16.7833 33.5352C27.6879 33.5352 38.5925 33.5352 49.4971 33.5352C49.7128 33.5591 49.9045 33.5591 50.2401 33.5591Z" fill="white"/>
</svg>
